<svg xmlns="http://www.w3.org/2000/svg" width="512" height="512"><path d="M328.5.704c-7.222.975-24.473 5.559-25.479 6.771-.729.879-2.014 1.086-3.787.612-4.937-1.32-12.179.711-23.055 6.466-20.585 10.892-35.353 21.568-48.827 35.296-26.795 27.303-39.944 49.347-47.526 79.676-1.876 7.504-2.251 11.782-2.285 26.105-.036 15.22-.212 17.004-1.576 16a979.961 979.961 0 01-7-5.284C142.657 146.348 105.693 140.5 73 151.161c-25.066 8.175-47.633 27.338-59.961 50.919-23.747 45.42-11.228 102.515 29.147 132.939 23.549 17.745 52.93 25.211 80.433 20.44 15.275-2.65 30.851-8.385 39.505-14.547l2.874-2.047 1.001 2.633c.551 1.448 1.001 3.005 1.001 3.461 0 .456 1.285 2.205 2.856 3.886l2.855 3.057-4.544.299c-4.121.271-4.851.727-7.841 4.898-1.813 2.529-3.415 5.679-3.561 7-.188 1.702-1.676 3.192-5.111 5.116-11.751 6.584-32.562 26.805-43.902 42.658-8.171 11.422-15.029 25.106-18.19 36.295-3.374 11.941-5.143 31.56-3.713 41.178 1.222 8.212 2.633 12.654 4.02 12.654.505 0 2.131-3.038 3.613-6.75 3.663-9.175 8.532-16.937 13.703-21.845 5.362-5.088 8.221-7.031 18.315-12.449 14.873-7.984 25.604-16.677 29.445-23.854 2.26-4.221 2.013-1.538-.822 8.954-1.552 5.744-3.608 14.944-4.569 20.444-3.126 17.898-6.722 34.674-8.604 40.144L139.108 512h2.215c2.835 0 4.596-5.483 8.831-27.5 5.131-26.674 15.72-66.248 20.003-74.757 1.859-3.693 1.933-3.73 4.367-2.135 1.362.892 2.476 2.22 2.476 2.951 0 3.379 4.527 6.43 11.748 7.918 3.987.822 8.854 2.165 10.815 2.985 3.451 1.442 3.549 1.629 3.034 5.764-.294 2.351-.803 8.774-1.131 14.274-.662 11.075-3.41 29.196-6.975 46-1.283 6.05-2.646 14.038-3.029 17.75l-.695 6.75h28.617c21.167 0 28.616-.304 28.616-1.169 0-1.69-14.981-47.153-22.681-68.831-6.518-18.348-8.346-22-11.012-22-.761 0-6.878-1.317-13.595-2.926-6.717-1.609-13.59-3.202-15.275-3.538-2.326-.465-3.358-1.428-4.289-4.002-.829-2.294-2.653-4.226-5.645-5.979-3.604-2.113-4.545-3.278-5.105-6.323-.378-2.052-1.782-5.046-3.121-6.652-2.187-2.623-2.366-3.508-1.762-8.707.576-4.966.306-6.584-1.905-11.413-2.346-5.124-2.449-5.871-1.159-8.366.78-1.507 2.188-3.382 3.131-4.167 1.718-1.43 18.897-3.703 29.109-3.852 5.281-.076 7.803-1.466 4.54-2.502-.989-.314-2.637-1.991-3.662-3.726l-1.865-3.156 3.162.632c1.739.348 6.868.93 11.398 1.294 9.481.761 14.491 2.884 18.16 7.694C228.955 357.63 237 374.147 237 376.026c0 .544 2.468 6.122 5.484 12.396 3.477 7.234 6.573 12.262 8.462 13.743 2.337 1.832 3.526 4.226 5.521 11.117 3.887 13.424 9.426 23.601 32.649 59.983 6.878 10.775 14.451 24.154 18.653 32.952l2.731 5.717 14.715.033c14.26.032 14.751-.037 15.893-2.217.649-1.238 8.471-13.275 17.382-26.75 8.912-13.475 18.779-29.549 21.927-35.72 5.931-11.628 12.145-19.61 18.159-23.327 5.246-3.242 15.184-5.937 21.924-5.945 9.854-.011 21.304 6.8 26.137 15.546 2.439 4.413 4.595 16.325 4.186 23.121-.428 7.122-5.341 19.991-11.261 29.499-1.481 2.379-4.816 7.926-7.41 12.326-2.595 4.4-5.542 9.238-6.55 10.75L423.77 512H449.835l1.502-4.25c.827-2.338 2.995-8.732 4.818-14.21l3.316-9.96 1.146 5.158c.63 2.838 2.394 9.232 3.922 14.21l2.776 9.052H506l-.003-3.25c-.007-5.924-2.068-26.116-3.572-34.987-3.024-17.833-7.346-28.233-15.39-37.035-4.724-5.168-4.991-5.731-3.875-8.179 1.056-2.319 1.56-2.536 4.269-1.839 1.689.434 6.149.79 9.911.79 6.031 0 7.071-.286 8.8-2.423 1.22-1.508 1.847-3.568 1.66-5.454l-.3-3.031-8-.33c-4.4-.181-9.575-.817-11.5-1.413-7.587-2.348-22.635-11.338-29-17.325-7.296-6.863-13.336-11.524-14.933-11.524-1.693 0-1.391-.676 4.631-10.348 7.881-12.658 32.496-61.593 38.306-76.152 7.748-19.417 14.846-40.94 16.926-51.323 1.066-5.322 2.915-18.452 4.108-29.177 1.837-16.51 2.093-23.18 1.668-43.5-.54-25.793-1.338-31.406-6.827-48-4.087-12.355-16.49-37.136-24.909-49.768-8.93-13.397-31.956-36.251-45.969-45.624-10.067-6.733-30.302-17.262-42.455-22.09C370.339 2.388 344.848-1.501 328.5.704M264.42 101.22c-3.747 5.104-9.207 13.844-12.133 19.422-5.941 11.327-14.511 30.467-13.911 31.068.215.214 3.452-.144 7.194-.796 3.991-.695 10.335-.936 15.341-.582 7.31.516 9.717 1.19 16.763 4.697 7.358 3.662 14.326 9.473 14.326 11.947 0 2.275-2.359 1.907-5.935-.924-11.364-9.001-30.406-13.129-45.056-9.769-5.488 1.259-5.491 1.261-6.154 5.738-.365 2.464-1.194 5.829-1.842 7.479-2.51 6.388-7.068 31.574-8.136 44.96-1.224 15.338-.675 32.119 1.622 49.53 2.539 19.249 1.311 17.179 22.832 38.519 20.061 19.895 28.781 26.608 47.669 36.696 12.994 6.94 20.463 9.065 30.384 8.645 8.204-.347 8.43-.429 27.694-10.09 22.707-11.388 52.234-29.435 59.537-36.389 5.079-4.836 5.145-4.978 9.188-19.871 7.325-26.978 11.3-48.394 11.878-64 .404-10.884.219-14.366-.831-15.644-.742-.904-10.125-6.108-20.85-11.565-10.725-5.456-22.517-11.832-26.205-14.167l-6.704-4.246-8.796 1.665c-13.145 2.487-16.295 2.8-16.295 1.619 0-1.982 4.38-4.11 11.902-5.784 7.44-1.655 7.504-1.696 5.1-3.277-10.055-6.612-37.961-33.952-61.28-60.036-5.598-6.261-5.336-5.134 2.391 10.286 6.382 12.735 14.163 25.853 18.657 31.454 1.899 2.367 3.234 4.524 2.966 4.793-.999.998-10.837-3.511-17.918-8.213-13.695-9.092-33.738-30.695-42.951-46.294l-3.634-6.151-6.813 9.28m185.992 72.956a6967.52 6967.52 0 01-14.588 17.321l-2.676 3.147 6.445 3.178c3.545 1.748 6.814 3.178 7.265 3.178.452 0 2.847-2.588 5.324-5.75a16478.02 16478.02 0 0112.054-15.363c6.845-8.713 7.586-10.094 7.908-14.751l.356-5.137h-5.088l-5.087.001-11.913 14.176M89.624 167.57c-16.624 3.729-29.75 10.707-41.808 22.228C29.535 207.264 19.967 230.782 21.29 255c2.518 46.113 39.103 81.193 84.71 81.227 23.595.017 44.148-8.338 60.34-24.53 41.966-41.966 29.922-111.964-23.607-137.191-5.078-2.394-11.933-5.085-15.233-5.98-8.735-2.37-29.264-2.888-37.876-.956m159.72 10.417c-9.291 1.96-17.344 7.619-17.344 12.187 0 3.174.626 3.474 2.921 1.398 2.691-2.433 13.376-7.278 17.579-7.971l4-.66-3.108 2.78c-4.454 3.982-6.938 8.003-8.78 14.211-2.957 9.964-1.326 18.673 4.653 24.842 3.308 3.413 10.645 6.234 16.167 6.216 3.647-.011 12.371-3.921 14.763-6.616 2.922-3.292 5.76-10.7 5.783-15.093.017-3.237.354-4.091 1.449-3.671 2.416.927 3.151-7.591 1.012-11.728-2.937-5.683-7.554-10.759-12.361-13.591-3.929-2.316-5.855-2.732-13.578-2.94-4.95-.133-10.87.153-13.156.636m-185.029 5.02c-4.931 1.987-5.877 10.558-1.866 16.912 2.158 3.418 3.043 3.961 7.45 4.567 2.75.378 5.425 1.211 5.945 1.851.519.64 1.104 4.308 1.3 8.152l.356 6.989-6 .794c-4.83.64-6.491 1.361-8.521 3.699-1.386 1.597-3.727 3.363-5.202 3.924-4.736 1.8-6.011 6.053-7.071 23.585-.968 16.015-.884 17.054 2.449 30.185 1.598 6.297 5.411 10.153 11.845 11.983 8.17 2.323 11.74 2.693 14.772 1.53 1.501-.575 5.242-1.742 8.315-2.593 7.159-1.981 14.469-8.146 15.205-12.822 1.256-7.986 3.706-19.546 4.792-22.619.784-2.22.957-6.098.511-11.448-.777-9.316-4.457-17.07-9.903-20.869-1.756-1.225-3.54-2.791-3.965-3.48-.426-.689-3.463-1.557-6.75-1.929-3.288-.372-5.977-.823-5.977-1.003 0-.179 1.159-2.034 2.575-4.121 1.416-2.087 2.817-5.005 3.113-6.486.487-2.432 1.084-2.758 6.175-3.376 3.101-.375 6.357-1.056 7.237-1.512 2.124-1.102 6.108-13.079 5.713-17.177-.263-2.72-.766-3.295-3.123-3.565-3.834-.44-5.309 1.064-6.69 6.822-1.344 5.604-2.311 6.668-6.5 7.153l-3 .347-.283-7c-.207-5.106-.732-7.338-1.941-8.25-3.917-2.953-5.942-.516-7.063 8.502-.62 4.986-1.021 5.791-3.019 6.075-3.751.532-5.194-1.518-5.194-7.378 0-3.49-.538-5.844-1.571-6.878-.865-.864-1.652-1.542-1.75-1.508-.099.035-1.162.46-2.364.944m67.115 3.128c-.892 1.725-1.916 6.071-2.276 9.657-.693 6.91-1.503 7.749-5.904 6.11-1.996-.743-2.25-1.527-2.25-6.936 0-6.899-1.212-9.966-3.937-9.966-2.524 0-4.063 4.75-4.063 12.538 0 7.979 1.651 10.146 9.002 11.815 4.909 1.115 5.469 1.503 5.229 3.624-.149 1.306.224 3.871.827 5.699 1.953 5.917 7.197 3.693 8.425-3.573l.665-3.936 8.358-.696c10.891-.907 12.425-2.21 12.677-10.76.281-9.537-.084-12.102-1.916-13.474-2.738-2.052-3.68-.951-5.32 6.214-1.77 7.74-3.726 9.783-8.947 9.344l-3.5-.295.343-7.17c.431-9.032-.255-11.33-3.385-11.33-1.686 0-2.892.939-4.028 3.135m122.957 8.298c-.88 2.293.286 4.569 2.332 4.552 2.775-.024 4.512-1.543 4.121-3.605-.463-2.438-5.592-3.191-6.453-.947m126.113 5.216c-11.66 2.428-20.069 6.427-19.057 9.063.325.848.112 2.119-.474 2.826-1.946 2.344.803 2.619 4.965.496 2.202-1.124 6.776-2.689 10.165-3.48l6.161-1.437-3.285 3.191c-12.026 11.685-9.526 34.449 4.484 40.812 8.304 3.772 18.135 1.523 24.367-5.574 4.307-4.907 5.14-7.294 5.877-16.854.578-7.496.689-7.792 1.987-5.315 1.721 3.286 2.495 3.286 4.021-.001 2.442-5.261-5.161-15.51-14.671-19.778-8.135-3.65-18.199-5.27-24.54-3.949m-175.889 4.482c-1.824 3.546-1.824 3.744.011 8.5l1.878 4.869.307-4.25c.17-2.338.165-6.162-.011-8.5l-.318-4.25-1.867 3.631m177.627 11.031c-2.679 2.679.036 6.52 3.772 5.335 1.57-.498 2.028-1.347 1.798-3.333-.343-2.968-3.477-4.095-5.57-2.002m-266.203 11.772c-.569 1.064-1.035 2.882-1.035 4.041 0 1.158-.949 3.39-2.109 4.959l-2.109 2.852 2.097 2.857c1.928 2.626 2.104 4.231 2.169 19.857.038 9.35-.409 19.438-.995 22.417-.878 4.467-.796 5.826.464 7.75.841 1.283 2.182 2.333 2.98 2.333 3.374 0 4.406-5.313 5.561-28.628 1.046-21.106 1.293-23.01 3.2-24.664 3.695-3.204 5.219-1.859 5.444 4.804.465 13.755 2.159 37.114 2.81 38.738 1.209 3.014 3.525 1.922 5.528-2.607 1.716-3.88 1.871-6.04 1.419-19.75-.279-8.466-.732-17.113-1.007-19.216-.457-3.505-.313-3.795 1.738-3.5 3.148.455 5.767 9.609 6.188 21.63.426 12.143-.672 17.843-4.136 21.476-4.158 4.362-14.383 11.571-28.088 19.802C96.078 314.143 90 320.832 90 330.866c0 2.696.358 3.134 2.562 3.134 1.867 0 5.323-2.613 12.75-9.642 5.603-5.303 10.638-10.173 11.188-10.821 1.696-1.997 15.042-9.555 20.61-11.671 2.903-1.103 6.878-3.271 8.834-4.817 1.956-1.547 4.452-2.983 5.547-3.192 1.216-.233 2.926-2.32 4.397-5.369 2.14-4.436 2.455-6.702 2.855-20.488.681-23.531-2.266-34.232-10.36-37.613-4.289-1.793-7.314-1.748-15.166.221l-6.412 1.608-3.695-3.608c-4.196-4.098-5.6-4.43-7.075-1.674m340.201 6.766c-2.901 1.881-4.353 3.627-4.785 5.75-1.177 5.795-9.327 32.85-11.968 39.734-.389 1.012.685 2.039 3.425 3.274 3.791 1.71 4.204 1.714 8.272.087 8.847-3.54 18.991-13.079 23.677-22.265 4.972-9.746 1.111-23.105-8.057-27.875-3.858-2.007-5.848-1.763-10.564 1.295M87 232.915c0 2.545 6.363 17.099 8.184 18.719l2.098 1.866-.701-6.343c-.788-7.129-1.978-10.833-4.306-13.405-1.661-1.836-5.275-2.41-5.275-.837m-9.299 4.734c-2.323 11.919-2.691 12.616-10.817 20.488-7.602 7.364-7.884 7.802-7.884 12.25 0 5.962.992 5.932 10.22-.314 11.034-7.468 11.285-7.455 17.629.89 2.941 3.871 5.664 7.037 6.05 7.037 1.496 0 3.101-2.513 3.101-4.856 0-1.35-1.044-3.848-2.321-5.55-1.276-1.702-3.356-5.263-4.622-7.913-1.266-2.65-3.3-6.025-4.52-7.5-2.558-3.093-4.53-8.326-4.552-12.08-.025-4.137-1.621-5.852-2.284-2.452m-15.452-.399c-.548.688-1.306 5.075-1.684 9.75-.663 8.185-.625 8.412 1.016 6.127C63.904 249.893 67 241.53 67 238.489c0-2.735-2.947-3.503-4.751-1.239m395.114 1.247c-.333.867.734 2.988 2.531 5.035 1.708 1.946 3.106 4.471 3.106 5.613 0 1.141-2.25 4.536-5 7.545-3.115 3.408-5 6.383-5 7.891 0 3.312.755 3.076 5.712-1.789l4.288-4.208v3.791c0 4.457 1.754 4.508 3.894.115 2.028-4.165 2.483-10.377 1.128-15.408-1.894-7.032-9.045-12.792-10.659-8.585M300 258.994c0 1.188-1.35 3.51-3 5.16-1.65 1.65-3 3.57-3 4.268 0 1.87 3.572 4.775 7.793 6.337 8.622 3.191 8.974 2.807 3.957-4.313-2.382-3.38-3.25-5.702-3.25-8.692 0-2.374-.523-4.256-1.25-4.501-.744-.25-1.25.455-1.25 1.741M71.019 276.893c-6.242 4.691-8.784 7.89-6.831 8.598C70.989 287.957 74.549 289 76.166 289c2.382 0 7.834-3.931 7.834-5.647C84 281.351 78.642 273 77.358 273c-.637 0-3.489 1.752-6.339 3.893m207.475 16.116c-.342.555-.349 1.872-.014 2.928.445 1.403 3.484 2.839 11.314 5.347 16.008 5.126 25.031 6.178 43.862 5.112 14.557-.823 15.844-1.05 15.844-2.787 0-3.568-2.908-4.224-9.211-2.079-4.668 1.589-8.402 1.962-19.289 1.928-13.542-.043-20.72-1.343-27.801-5.038-1.484-.774-3.174-1.41-3.755-1.414-.58-.003-2.58-1.131-4.444-2.506-3.628-2.677-5.507-3.107-6.506-1.491m-84.392 16.983c-1.779 2.745-5.426 7.39-8.105 10.321l-4.872 5.33 2.897 4.929c4.806 8.175 6.087 9.328 11.477 10.332 2.75.512 5.131.799 5.293.637.161-.161-1.301-1.234-3.249-2.383-1.949-1.15-3.543-2.723-3.543-3.496 0-.772 1.761-3.375 3.913-5.783l3.913-4.379 3.337 3.13c1.835 1.722 4.409 3.681 5.718 4.355l2.382 1.226-2.611-3.423c-2.855-3.743-10.093-18.652-11.185-23.038-.376-1.512-1.009-2.75-1.407-2.75-.398 0-2.179 2.246-3.958 4.992m5.977 22.329c-1.838 1.838-1.203 3.563 1.904 5.17 3.982 2.059 12.017 3.159 12.017 1.645 0-.625-.63-1.136-1.4-1.136-.769 0-3.659-1.521-6.42-3.379-3.593-2.418-5.329-3.072-6.101-2.3m24.729 9.113c1.659 1.889 3.311 4.364 3.671 5.5.376 1.185 1.513 2.066 2.666 2.066 1.687 0 1.255-.883-2.689-5.5-2.584-3.025-5.141-5.5-5.681-5.5s.375 1.545 2.033 3.434m62.556 4.52c-.241 10.512-6.055 25.62-7.954 20.671-.338-.88-.118-3.023.488-4.762 2.11-6.052 2.621-5.863-15.839-5.863-10.738 0-17.178-.384-17.589-1.049-.442-.715-1.102-.672-2.075.136-1.038.862-1.265 2.444-.832 5.799.327 2.538.102 7.539-.5 11.114l-1.095 6.5 4.111 8c2.26 4.4 6.076 10.025 8.479 12.5 3.941 4.059 4.65 5.577 7.238 15.5 3.173 12.171 4.124 14.337 11.47 26.142 4.455 7.157 5.561 8.287 9.151 9.345 2.246.662 6.257 2.286 8.915 3.608 6.085 3.029 13.821 3.145 29.272.441 11.394-1.994 20.002-4.776 29.199-9.436 4.947-2.507 28.027-17.183 36.697-23.335 5.561-3.946 19.5-23.407 19.5-27.225 0-.572-.904-1.04-2.01-1.04-1.105 0-2.78-.9-3.722-2-.942-1.1-2.44-2-3.33-2-3.164 0-17.587-4.049-27.291-7.661-6.22-2.315-11.105-4.848-13.25-6.871L353 371.264l.024-9.882c.013-5.435.419-11.586.903-13.669.831-3.58.762-3.751-1.274-3.136-1.184.358-3.503 1.461-5.153 2.452-5.759 3.457-15.207 5.971-22.44 5.971-7.989 0-18.863-3.481-29.556-9.461-3.481-1.946-6.706-3.535-7.166-3.531-.461.005-.899 2.68-.974 5.946m-71.198-3.078c-1.074.681-1.025.964.25 1.453 1.981.76 4.762-.232 4.019-1.434-.691-1.118-2.522-1.126-4.269-.019m65.583 1.781c-.414.636-2.853 2.548-5.422 4.25l-4.67 3.093h5.203c5.665 0 6.52-.812 5.965-5.666-.195-1.702-.625-2.372-1.076-1.677m76.893 4.093c-.341 2.063-.625 7.843-.631 12.845-.009 7.577.297 9.374 1.833 10.764 4.876 4.413 35.684 14.299 40.665 13.049 1.384-.347 3.089-.157 3.788.423.698.58 1.854.694 2.567.253.901-.557-.333-1.726-4.033-3.824-9.792-5.551-18.231-12.504-30.263-24.934-6.563-6.779-12.242-12.326-12.62-12.326-.377 0-.965 1.688-1.306 3.75m77.463 42.335c-1.318.527-2.145 1.209-1.839 1.515.307.306 1.834-.136 3.396-.982 3.141-1.702 2.184-2.03-1.557-.533m11.029 2.74c.665 1.852 21.077 26.042 22.405 26.552 1.494.573 2.98 10.412 2.027 13.415-.797 2.51-4.266 3.441-8.401 2.255-2.895-.83-3.165-.712-3.165 1.378 0 2.119.453 2.297 6.25 2.445 6.941.178 6.764.333 12.321-10.784l2.207-4.414-15.139-14.894c-14.177-13.947-19.401-18.45-18.505-15.953m-6.457.925c-.55.937 1.937 10.688 3.592 14.079 1.507 3.088 4.183 4.29 3.429 1.539-4.079-14.885-5.541-18.137-7.021-15.618m37.272 21.691c4.594 4.748 12.707 7.737 19.959 7.354 4.711-.248 5.637-.61 5.877-2.295.265-1.853-.287-2-7.5-2.005-6.725-.005-8.738-.455-14.785-3.311l-7-3.306 3.449 3.563M368.5 438.183c-19.922 13.883-33.565 19.119-58.5 22.452-5.427.726-5.453.745-2 1.487 3.218.691 9.087-.067 13.431-1.734 1.352-.519 1.688-.246 1.419 1.151-.406 2.112-7.887 4.411-14.451 4.442-3.928.018-11.851-3.335-15.436-6.534-2.029-1.811-9.032-4.711-9.719-4.025-.296.297 2.017 4.486 5.141 9.309 3.124 4.823 7.578 11.99 9.897 15.926 4.653 7.896 5.486 8.343 15.535 8.343 4.722 0 6.607-.618 12.42-4.071 7.54-4.48 28.504-19.118 38.896-27.158 6.46-4.999 6.703-5.356 9.367-13.702 1.505-4.713 3.368-9.581 4.141-10.819.773-1.238 1.057-2.202.632-2.143-.425.059-5.273 3.243-10.773 7.076M224.042 455.25c.023.688.938 2.825 2.034 4.75 1.489 2.615 1.824 2.868 1.325 1-1.57-5.875-3.472-9.132-3.359-5.75m114.458 8.293c-4.95 2.406-12.947 5.802-17.772 7.547-8.172 2.954-13.203 5.801-6.997 3.96 12.588-3.737 27.235-10.114 32.269-14.051 3.424-2.677 2.814-2.47-7.5 2.544" fill="undefined" fill-rule="evenodd"/></svg>